<svg width="234" height="50" viewBox="0 0 234 50" fill="none" xmlns="http://www.w3.org/2000/svg">
<path d="M6.24594 40.3097L7.58236 41.3393V40.3097H6.24594ZM56.4056 40.7327V43.7656C56.5856 43.57 56.7457 43.3785 56.8937 43.1829C57.4579 42.4367 57.742 41.8022 57.742 41.2794L56.4056 40.7327ZM145.625 21.1353L146.534 21.3149V19.7107C146.165 20.2095 145.865 20.6804 145.625 21.1353ZM181.837 6.92097V8.07025C181.837 9.23948 181.533 10.0336 180.924 10.4566C180.32 10.8796 179.328 11.0951 177.955 11.0951C176.583 11.0951 175.607 10.8716 175.042 10.4287C174.474 9.98571 174.194 9.19958 174.194 8.07025V6.92097C174.194 5.75174 174.506 4.95363 175.135 4.53063C175.759 4.10763 176.719 3.89615 178.015 3.89615C179.428 3.89615 180.42 4.11561 180.984 4.55857C181.553 5.00551 181.837 5.79165 181.837 6.92097ZM98.9548 21.2869C99.539 23.362 99.8351 25.6726 99.8351 28.2106V43.6977C99.8351 44.7472 99.491 45.6252 98.8028 46.3275C98.1145 47.0338 97.2463 47.389 96.1939 47.389C95.1416 47.389 94.2733 47.0338 93.5851 46.3275C92.8969 45.6252 92.5568 44.7472 92.5568 43.6977V28.2106C92.5568 26.8817 92.3808 25.6805 92.0406 24.6111C91.6965 23.5456 91.0803 22.6876 90.1881 22.0412C89.2998 21.3987 88.0274 21.0755 86.3669 21.0755C84.7064 21.0755 83.386 21.3987 82.2736 22.0412C81.1613 22.6876 80.313 23.5456 79.7288 24.6111C79.1406 25.6805 78.8485 26.8817 78.8485 28.2106V43.6977C78.8485 44.7472 78.5044 45.6252 77.8162 46.3275C77.128 47.0338 76.2597 47.389 75.2074 47.389C74.1551 47.389 73.2868 47.0338 72.5986 46.3275C71.9104 45.6252 71.5703 44.7472 71.5703 43.6977V18.717C71.5703 17.6675 71.9104 16.7896 72.5986 16.0833C73.2868 15.3769 74.1551 15.0258 75.2074 15.0258C76.2597 15.0258 77.128 15.3769 77.8162 16.0833C78.5044 16.7896 78.8485 17.6675 78.8485 18.717V19.7386C79.0526 19.4752 79.2727 19.2039 79.5167 18.9285C80.201 18.1384 81.0092 17.4041 81.9415 16.7178C82.8698 16.0354 83.9221 15.4807 85.0945 15.0537C86.2669 14.6307 87.5393 14.4192 88.9157 14.4192C91.9086 14.4192 94.1813 15.0457 95.7378 16.2948C97.2943 17.5478 98.3666 19.2079 98.9548 21.2869ZM133.133 40.0384C133.698 40.7048 133.982 41.5189 133.982 42.4886C133.982 43.4583 133.414 44.416 132.281 45.2381C131.149 46.0681 129.664 46.7305 127.824 47.2373C125.983 47.7401 123.995 47.9915 121.85 47.9915C118.657 47.9915 115.884 47.2573 113.539 45.7848C111.195 44.3123 109.386 42.305 108.114 39.7672C106.837 37.2252 106.201 34.3839 106.201 31.2354C106.201 27.9312 106.877 25.0181 108.234 22.4961C109.586 19.9741 111.467 17.9987 113.875 16.5661C116.28 15.1375 119.041 14.4192 122.154 14.4192C124.459 14.4192 126.471 14.6626 128.188 15.1455C129.904 15.6284 131.241 16.3067 132.193 17.1727C133.141 18.0386 133.618 19.0762 133.618 20.2893C133.618 21.0954 133.374 21.8496 132.889 22.5559C132.405 23.2623 131.697 23.6134 130.765 23.6134C130.12 23.6134 129.584 23.5256 129.16 23.3421C128.736 23.1625 128.36 22.9311 128.036 22.6477C127.712 22.3644 127.328 22.101 126.883 21.8616C126.479 21.6182 125.863 21.4266 125.035 21.2869C124.207 21.1433 123.586 21.0755 123.186 21.0755C121.122 21.0755 119.373 21.5184 117.937 22.4043C116.5 23.2942 115.4 24.4914 114.632 26.0038C113.863 27.5162 113.479 29.2601 113.479 31.2354C113.479 33.2107 113.875 34.8947 114.664 36.4071C115.452 37.9196 116.544 39.1207 117.937 40.0065C119.333 40.8964 120.942 41.3393 122.758 41.3393C123.771 41.3393 124.639 41.2794 125.367 41.1557C126.095 41.036 126.703 40.8564 127.188 40.613C127.752 40.2898 128.26 39.9466 128.704 39.5836C129.148 39.2205 129.816 39.0409 130.705 39.0409C131.757 39.0409 132.565 39.3721 133.133 40.0384ZM60.0467 14.4192C58.9944 14.4192 58.1261 14.7744 57.4379 15.4807C56.7497 16.183 56.4056 17.061 56.4056 18.1105V18.1903C56.0494 17.8591 55.6573 17.5318 55.2252 17.2046C54.1529 16.3985 52.8885 15.7321 51.432 15.2054C49.9796 14.6826 48.3791 14.4192 46.6425 14.4192C43.9337 14.4192 41.4649 15.1375 39.2442 16.5661C37.0195 17.9987 35.247 19.9741 33.9346 22.4961C32.6222 25.0181 31.9619 27.9312 31.9619 31.2354C31.9619 34.5396 32.6222 37.3968 33.9346 39.9187C35.247 42.4367 37.0395 44.416 39.3042 45.8446C41.5649 47.2772 44.0937 47.9915 46.8826 47.9915C48.4191 47.9915 49.8475 47.7401 51.1599 47.2373C52.4723 46.7305 53.6167 46.116 54.589 45.3897C55.3052 44.851 55.9094 44.3123 56.4056 43.7656V40.7327L57.742 41.2794C57.742 41.8022 57.4579 42.4367 56.8937 43.1829C56.7457 43.3785 56.5856 43.57 56.4056 43.7656C56.4216 44.7871 56.7657 45.6411 57.4379 46.3275C58.1261 47.0338 58.9944 47.389 60.0467 47.389C61.099 47.389 61.9673 47.0338 62.6555 46.3275C63.3397 45.6252 63.6838 44.7472 63.6838 43.6977V18.1105C63.6838 17.0211 63.3397 16.1352 62.6555 15.4488C61.9673 14.7624 61.099 14.4192 60.0467 14.4192ZM55.5893 36.3792C54.8411 37.9116 53.8007 39.1207 52.4643 40.0065C51.1319 40.8964 49.5714 41.3393 47.7949 41.3393C46.0183 41.3393 44.5179 40.8964 43.1854 40.0065C41.849 39.1207 40.8087 37.9116 40.0605 36.3792C39.3122 34.8468 38.9401 33.1309 38.9401 31.2354C38.9401 29.3399 39.3122 27.5681 40.0605 26.0357C40.8087 24.5033 41.849 23.2942 43.1854 22.4043C44.5179 21.5184 46.0543 21.0755 47.7949 21.0755C49.5354 21.0755 51.1319 21.5184 52.4643 22.4043C53.8007 23.2942 54.8411 24.5033 55.5893 26.0357C56.3375 27.5681 56.7097 29.3 56.7097 31.2354C56.7097 33.1708 56.3375 34.8468 55.5893 36.3792ZM26.0521 41.3074C26.7563 41.9738 27.1124 42.8318 27.1124 43.8773C27.1124 44.9228 26.7563 45.7249 26.0521 46.3913C25.3439 47.0538 24.4636 47.389 23.4113 47.389H3.70115C2.64882 47.389 1.76855 47.0338 1.06033 46.3275C0.352113 45.6252 0 44.7472 0 43.6977V8.73268C0 7.68716 0.364118 6.80924 1.09234 6.10291C1.82057 5.39658 2.74886 5.04541 3.88121 5.04541C4.85351 5.04541 5.70978 5.39658 6.45801 6.10291C7.20624 6.80924 7.58236 7.68716 7.58236 8.73268V40.3097H6.24594L7.58236 41.3393V40.3097H23.4113C24.4636 40.3097 25.3439 40.641 26.0521 41.3074ZM166.068 21.2869C166.632 23.362 166.916 25.6726 166.916 28.2106V43.6977C166.916 44.7472 166.572 45.6252 165.884 46.3275C165.195 47.0338 164.327 47.389 163.275 47.389C162.223 47.389 161.354 47.0338 160.666 46.3275C159.978 45.6252 159.638 44.7472 159.638 43.6977V28.2106C159.638 26.8817 159.474 25.6805 159.15 24.6111C158.825 23.5456 158.241 22.6876 157.393 22.0412C156.545 21.3987 155.332 21.0755 153.752 21.0755C152.171 21.0755 150.903 21.3987 149.811 22.0412C148.718 22.6876 147.902 23.5456 147.354 24.6111C146.81 25.6805 146.534 26.8817 146.534 28.2106V43.6977C146.534 44.7472 146.193 45.6252 145.505 46.3275C144.817 47.0338 143.949 47.389 142.896 47.389C141.844 47.389 140.976 47.0338 140.288 46.3275C139.599 45.6252 139.255 44.7472 139.255 43.6977V6.31441C139.255 5.26489 139.599 4.39096 140.288 3.68464C140.976 2.97832 141.844 2.62317 142.896 2.62317C143.949 2.62317 144.817 2.97832 145.505 3.68464C146.193 4.39096 146.534 5.26489 146.534 6.31441V19.7107C146.165 20.2095 145.865 20.6804 145.625 21.1353L146.534 21.3149V19.7107C146.718 19.4553 146.922 19.1959 147.142 18.9285C147.79 18.1384 148.578 17.4041 149.507 16.7178C150.439 16.0354 151.467 15.4807 152.6 15.0537C153.732 14.6307 154.964 14.4192 156.301 14.4192C159.214 14.4192 161.426 15.0457 162.943 16.2948C164.459 17.5478 165.5 19.2079 166.068 21.2869ZM181.653 18.717V43.6977C181.653 44.7472 181.308 45.6252 180.62 46.3275C179.936 47.0338 179.064 47.389 178.015 47.389C176.967 47.389 176.095 47.0338 175.407 46.3275C174.718 45.6252 174.374 44.7472 174.374 43.6977V18.717C174.374 17.6675 174.718 16.7896 175.407 16.0833C176.095 15.3769 176.963 15.0258 178.015 15.0258C179.068 15.0258 179.936 15.3769 180.62 16.0833C181.308 16.7896 181.653 17.6675 181.653 18.717ZM199.406 48.1392C199.194 46.6707 199.502 42.736 201.055 42.0815C202.147 41.6226 206.28 42.6163 208.117 42.4327C211.466 42.0975 210.173 40.4015 211.098 37.9954C211.274 37.5405 211.842 37.1853 211.842 36.8182C211.846 36.2675 211.006 36.1158 211.114 35.5053L212.566 34.8907C212.698 34.0807 211.35 33.6776 211.69 32.3767C211.882 31.6464 212.726 31.7781 213.198 31.3631C215.063 29.711 211.686 27.7077 210.914 26.4986C209.349 24.0564 210.878 20.8879 209.437 18.29C210.982 18.2062 211.494 19.8783 211.358 21.1553C211.718 21.2231 211.686 20.4649 211.69 20.2295C211.706 19.2957 211.542 18.1623 210.858 17.468C210.293 16.8934 209.249 16.7617 208.845 16.3666C207.557 15.1255 207.897 13.3059 205.212 12.1007C203.383 11.2787 203.223 11.8573 201.659 11.8373C198.614 11.8014 195.653 8.5571 192.36 9.3991L190.263 8.13011C194.076 4.3311 198.718 1.39009 204.116 0.428363C222.417 -2.8399 237.61 13.0944 233.245 31.1556C229.712 45.7808 213.326 53.8936 199.402 48.1352L199.406 48.1392ZM198.462 28.5697C198.462 30.537 196.861 32.1333 194.889 32.1333C192.916 32.1333 191.316 30.537 191.316 28.5697C191.316 26.6024 192.916 25.0061 194.889 25.0061C196.861 25.0061 198.462 26.6024 198.462 28.5697Z" fill="url(#paint0_linear_617_12378)"/>
<defs>
<linearGradient id="paint0_linear_617_12378" x1="0" y1="25.0061" x2="234.005" y2="25.0061" gradientUnits="userSpaceOnUse">
<stop stop-color="#7DCED0"/>
<stop offset="1" stop-color="#A7D169"/>
</linearGradient>
</defs>
</svg>
